<svg width="28" height="28" viewBox="0 0 28 28" fill="none" xmlns="http://www.w3.org/2000/svg">
<path d="M19.4648 5.37096L22.4286 8.33476M21.3702 2.75996L13.3524 10.7778C12.9381 11.1915 12.6556 11.7185 12.5404 12.2926L11.7998 15.9998L15.507 15.2578C16.081 15.143 16.6074 14.8616 17.0218 14.4472L25.0396 6.42936C25.2805 6.18842 25.4717 5.90239 25.6021 5.58759C25.7325 5.27279 25.7996 4.93539 25.7996 4.59466C25.7996 4.25392 25.7325 3.91652 25.6021 3.60172C25.4717 3.28693 25.2805 3.00089 25.0396 2.75996C24.7987 2.51902 24.5126 2.3279 24.1978 2.19751C23.883 2.06711 23.5456 2 23.2049 2C22.8642 2 22.5268 2.06711 22.212 2.19751C21.8972 2.3279 21.6111 2.51902 21.3702 2.75996Z" stroke="black" stroke-width="2.8" stroke-linecap="round" stroke-linejoin="round"/>
<path d="M23 18.7998V22.9998C23 23.7424 22.705 24.4546 22.1799 24.9797C21.6548 25.5048 20.9426 25.7998 20.2 25.7998H4.8C4.05739 25.7998 3.3452 25.5048 2.8201 24.9797C2.295 24.4546 2 23.7424 2 22.9998V7.59976C2 6.85715 2.295 6.14496 2.8201 5.61986C3.3452 5.09476 4.05739 4.79976 4.8 4.79976H9" stroke="black" stroke-width="2.8" stroke-linecap="round" stroke-linejoin="round"/>
</svg>
