<svg width="1440" height="520" viewBox="0 0 1440 520" fill="none" xmlns="http://www.w3.org/2000/svg">
<g filter="url(#filter0_d_1_51)">
<path d="M923.53 236.03H941V275.97H923.53V236.03ZM889.104 287.664H906.574V224.336H889.104V287.664ZM855.256 320.42H872.726V191.58H855.256V320.42ZM823.079 345.696H840.549V167.483H823.079V345.653V345.696ZM788.631 302.175H806.101V209.825H788.631V302.175ZM753.637 372.054H771.107V135.994H753.582V372.054H753.637ZM719.2 405.9H736.67V106.1H719.2V405.9ZM685.352 359.616H702.822V152.383H685.352V359.617V359.616ZM650.336 300.766H667.806V213.416H650.336V300.766ZM616.489 279.943H633.959V231.98H616.489V280.022V279.943ZM582.641 305.603H600.111V206.363H582.641V305.635V305.603ZM549.339 353.643H566.809V152.678H549.34V353.678L549.339 353.643ZM515.492 322.941H532.962V187.333H515.492V322.975V322.941ZM481 287.664H498.47V224.336H481V287.664Z" fill="#00B2FF"/>
<line x1="477" y1="254.5" x2="-4.37114e-08" y2="254.5" stroke="#898989"/>
<line x1="1440" y1="254.5" x2="941" y2="254.5" stroke="#898989"/>
</g>
<defs>
<filter id="filter0_d_1_51" x="-4" y="0" width="1448" height="520" filterUnits="userSpaceOnUse" color-interpolation-filters="sRGB">
<feFlood flood-opacity="0" result="BackgroundImageFix"/>
<feColorMatrix in="SourceAlpha" type="matrix" values="0 0 0 0 0 0 0 0 0 0 0 0 0 0 0 0 0 0 127 0" result="hardAlpha"/>
<feOffset dy="4"/>
<feGaussianBlur stdDeviation="2"/>
<feComposite in2="hardAlpha" operator="out"/>
<feColorMatrix type="matrix" values="0 0 0 0 0 0 0 0 0 0 0 0 0 0 0 0 0 0 0.25 0"/>
<feBlend mode="normal" in2="BackgroundImageFix" result="effect1_dropShadow_1_51"/>
<feBlend mode="normal" in="SourceGraphic" in2="effect1_dropShadow_1_51" result="shape"/>
</filter>
</defs>
</svg>
